<mxfile host="app.diagrams.net" agent="Mozilla/5.0 (Windows NT 10.0; Win64; x64) AppleWebKit/537.36 (KHTML, like Gecko) Chrome/122.0.0.0 Safari/537.36" version="26.2.13">
  <diagram name="Page-1" id="-uRcLJucZP1bzdbs_FvR">
    <mxGraphModel dx="1387" dy="432" grid="0" gridSize="10" guides="1" tooltips="1" connect="1" arrows="1" fold="1" page="0" pageScale="1" pageWidth="827" pageHeight="1169" math="0" shadow="0">
      <root>
        <mxCell id="0" />
        <mxCell id="1" parent="0" />
        <mxCell id="N68zQNuSJBka23Q_pGD3-1" value="SQ" style="rounded=0;whiteSpace=wrap;html=1;" parent="1" vertex="1">
          <mxGeometry x="150" y="120" width="60" height="30" as="geometry" />
        </mxCell>
        <mxCell id="N68zQNuSJBka23Q_pGD3-2" value="SQ" style="rounded=0;whiteSpace=wrap;html=1;" parent="1" vertex="1">
          <mxGeometry x="150" y="180" width="60" height="30" as="geometry" />
        </mxCell>
        <mxCell id="N68zQNuSJBka23Q_pGD3-3" value="MULT 3" style="rounded=0;whiteSpace=wrap;html=1;" parent="1" vertex="1">
          <mxGeometry x="150" y="270" width="60" height="30" as="geometry" />
        </mxCell>
        <mxCell id="N68zQNuSJBka23Q_pGD3-4" value="MULT" style="rounded=0;whiteSpace=wrap;html=1;" parent="1" vertex="1">
          <mxGeometry x="270" y="120" width="60" height="90" as="geometry" />
        </mxCell>
        <mxCell id="N68zQNuSJBka23Q_pGD3-6" value="ADD" style="rounded=0;whiteSpace=wrap;html=1;" parent="1" vertex="1">
          <mxGeometry x="396" y="160" width="70" height="140" as="geometry" />
        </mxCell>
        <mxCell id="N68zQNuSJBka23Q_pGD3-8" value="MULT 2" style="rounded=0;whiteSpace=wrap;html=1;" parent="1" vertex="1">
          <mxGeometry x="396" y="320" width="70" height="30" as="geometry" />
        </mxCell>
        <mxCell id="N68zQNuSJBka23Q_pGD3-9" value="ADD" style="rounded=0;whiteSpace=wrap;html=1;" parent="1" vertex="1">
          <mxGeometry x="560" y="190" width="70" height="160" as="geometry" />
        </mxCell>
        <mxCell id="N68zQNuSJBka23Q_pGD3-10" value="MULT 4" style="rounded=0;whiteSpace=wrap;html=1;" parent="1" vertex="1">
          <mxGeometry x="740" y="190" width="70" height="160" as="geometry" />
        </mxCell>
        <mxCell id="N68zQNuSJBka23Q_pGD3-14" value="&lt;font style=&quot;font-size: 14px;&quot;&gt;y²&lt;/font&gt;" style="text;html=1;align=center;verticalAlign=middle;whiteSpace=wrap;rounded=0;" parent="1" vertex="1">
          <mxGeometry x="210" y="180" width="60" height="30" as="geometry" />
        </mxCell>
        <mxCell id="N68zQNuSJBka23Q_pGD3-15" value="&lt;font style=&quot;font-size: 14px;&quot;&gt;x²&lt;/font&gt;" style="text;html=1;align=center;verticalAlign=middle;whiteSpace=wrap;rounded=0;" parent="1" vertex="1">
          <mxGeometry x="210" y="120" width="60" height="30" as="geometry" />
        </mxCell>
        <mxCell id="N68zQNuSJBka23Q_pGD3-16" value="&lt;font face=&quot;Tahoma&quot; style=&quot;font-size: 14px;&quot;&gt;x²y²&lt;/font&gt;" style="text;html=1;align=center;verticalAlign=middle;whiteSpace=wrap;rounded=0;" parent="1" vertex="1">
          <mxGeometry x="330" y="130" width="60" height="30" as="geometry" />
        </mxCell>
        <mxCell id="N68zQNuSJBka23Q_pGD3-17" value="&lt;font face=&quot;Tahoma&quot; style=&quot;font-size: 14px;&quot;&gt;x²y²+3w&lt;/font&gt;" style="text;html=1;align=center;verticalAlign=middle;whiteSpace=wrap;rounded=0;" parent="1" vertex="1">
          <mxGeometry x="486" y="180" width="60" height="30" as="geometry" />
        </mxCell>
        <mxCell id="N68zQNuSJBka23Q_pGD3-18" value="&lt;font face=&quot;Tahoma&quot; style=&quot;font-size: 14px;&quot;&gt;x²y²+3w+2w&lt;/font&gt;" style="text;html=1;align=center;verticalAlign=middle;whiteSpace=wrap;rounded=0;" parent="1" vertex="1">
          <mxGeometry x="640" y="240" width="90" height="30" as="geometry" />
        </mxCell>
        <mxCell id="N68zQNuSJBka23Q_pGD3-21" value="&lt;font face=&quot;Tahoma&quot; style=&quot;font-size: 14px;&quot;&gt;4(x²y²+3w+2w)&lt;/font&gt;" style="text;html=1;align=center;verticalAlign=middle;whiteSpace=wrap;rounded=0;" parent="1" vertex="1">
          <mxGeometry x="820" y="240" width="90" height="30" as="geometry" />
        </mxCell>
        <mxCell id="N68zQNuSJBka23Q_pGD3-22" value="&lt;font face=&quot;Tahoma&quot;&gt;&lt;span style=&quot;font-size: 14px;&quot;&gt;2w&lt;/span&gt;&lt;/font&gt;" style="text;html=1;align=center;verticalAlign=middle;whiteSpace=wrap;rounded=0;" parent="1" vertex="1">
          <mxGeometry x="476" y="340" width="60" height="30" as="geometry" />
        </mxCell>
        <mxCell id="N68zQNuSJBka23Q_pGD3-23" value="&lt;font face=&quot;Tahoma&quot;&gt;&lt;span style=&quot;font-size: 14px;&quot;&gt;3w&lt;/span&gt;&lt;/font&gt;" style="text;html=1;align=center;verticalAlign=middle;whiteSpace=wrap;rounded=0;" parent="1" vertex="1">
          <mxGeometry x="240" y="255" width="60" height="30" as="geometry" />
        </mxCell>
        <mxCell id="N68zQNuSJBka23Q_pGD3-24" value="" style="endArrow=classic;html=1;rounded=0;" parent="1" edge="1">
          <mxGeometry width="50" height="50" relative="1" as="geometry">
            <mxPoint x="120" y="134" as="sourcePoint" />
            <mxPoint x="150" y="134.47" as="targetPoint" />
          </mxGeometry>
        </mxCell>
        <mxCell id="N68zQNuSJBka23Q_pGD3-25" value="" style="endArrow=classic;html=1;rounded=0;" parent="1" edge="1">
          <mxGeometry width="50" height="50" relative="1" as="geometry">
            <mxPoint x="120" y="194.87" as="sourcePoint" />
            <mxPoint x="150" y="195.11" as="targetPoint" />
          </mxGeometry>
        </mxCell>
        <mxCell id="N68zQNuSJBka23Q_pGD3-26" value="" style="endArrow=classic;html=1;rounded=0;" parent="1" edge="1">
          <mxGeometry width="50" height="50" relative="1" as="geometry">
            <mxPoint x="120" y="284.63" as="sourcePoint" />
            <mxPoint x="150" y="285.1" as="targetPoint" />
          </mxGeometry>
        </mxCell>
        <mxCell id="N68zQNuSJBka23Q_pGD3-27" value="" style="endArrow=classic;html=1;rounded=0;entryX=1;entryY=1;entryDx=0;entryDy=0;" parent="1" target="N68zQNuSJBka23Q_pGD3-15" edge="1">
          <mxGeometry width="50" height="50" relative="1" as="geometry">
            <mxPoint x="210" y="134.77" as="sourcePoint" />
            <mxPoint x="280" y="160" as="targetPoint" />
            <Array as="points">
              <mxPoint x="230" y="135" />
              <mxPoint x="230" y="150" />
            </Array>
          </mxGeometry>
        </mxCell>
        <mxCell id="N68zQNuSJBka23Q_pGD3-28" value="" style="endArrow=classic;html=1;rounded=0;entryX=0;entryY=0.667;entryDx=0;entryDy=0;entryPerimeter=0;" parent="1" target="N68zQNuSJBka23Q_pGD3-4" edge="1">
          <mxGeometry width="50" height="50" relative="1" as="geometry">
            <mxPoint x="210" y="194.77" as="sourcePoint" />
            <mxPoint x="328" y="210" as="targetPoint" />
            <Array as="points">
              <mxPoint x="230" y="195" />
              <mxPoint x="230" y="180" />
            </Array>
          </mxGeometry>
        </mxCell>
        <mxCell id="N68zQNuSJBka23Q_pGD3-31" value="" style="endArrow=classic;html=1;rounded=0;entryX=0.017;entryY=0.428;entryDx=0;entryDy=0;entryPerimeter=0;" parent="1" target="N68zQNuSJBka23Q_pGD3-6" edge="1">
          <mxGeometry width="50" height="50" relative="1" as="geometry">
            <mxPoint x="330" y="164.7" as="sourcePoint" />
            <mxPoint x="380" y="270" as="targetPoint" />
            <Array as="points">
              <mxPoint x="360" y="165" />
              <mxPoint x="360" y="220" />
            </Array>
          </mxGeometry>
        </mxCell>
        <mxCell id="N68zQNuSJBka23Q_pGD3-32" value="" style="endArrow=classic;html=1;rounded=0;" parent="1" edge="1">
          <mxGeometry width="50" height="50" relative="1" as="geometry">
            <mxPoint x="210" y="285.7" as="sourcePoint" />
            <mxPoint x="396" y="251" as="targetPoint" />
            <Array as="points">
              <mxPoint x="360" y="286" />
              <mxPoint x="360" y="251" />
            </Array>
          </mxGeometry>
        </mxCell>
        <mxCell id="N68zQNuSJBka23Q_pGD3-33" value="" style="endArrow=classic;html=1;rounded=0;" parent="1" edge="1">
          <mxGeometry width="50" height="50" relative="1" as="geometry">
            <mxPoint y="299.43" as="sourcePoint" />
            <mxPoint x="40" y="299.43" as="targetPoint" />
          </mxGeometry>
        </mxCell>
        <mxCell id="N68zQNuSJBka23Q_pGD3-34" value="" style="endArrow=classic;html=1;rounded=0;entryX=0;entryY=0.5;entryDx=0;entryDy=0;" parent="1" target="N68zQNuSJBka23Q_pGD3-8" edge="1">
          <mxGeometry width="50" height="50" relative="1" as="geometry">
            <mxPoint x="130" y="285" as="sourcePoint" />
            <mxPoint x="396" y="339.74" as="targetPoint" />
            <Array as="points">
              <mxPoint x="130" y="335" />
            </Array>
          </mxGeometry>
        </mxCell>
        <mxCell id="N68zQNuSJBka23Q_pGD3-35" value="" style="endArrow=classic;html=1;rounded=0;entryX=0.004;entryY=0.374;entryDx=0;entryDy=0;entryPerimeter=0;" parent="1" target="N68zQNuSJBka23Q_pGD3-9" edge="1">
          <mxGeometry width="50" height="50" relative="1" as="geometry">
            <mxPoint x="466" y="230" as="sourcePoint" />
            <mxPoint x="590" y="250" as="targetPoint" />
            <Array as="points">
              <mxPoint x="500" y="230" />
              <mxPoint x="500" y="250" />
            </Array>
          </mxGeometry>
        </mxCell>
        <mxCell id="N68zQNuSJBka23Q_pGD3-36" value="" style="endArrow=classic;html=1;rounded=0;entryX=0.03;entryY=0.644;entryDx=0;entryDy=0;entryPerimeter=0;" parent="1" target="N68zQNuSJBka23Q_pGD3-9" edge="1">
          <mxGeometry width="50" height="50" relative="1" as="geometry">
            <mxPoint x="466" y="334.73" as="sourcePoint" />
            <mxPoint x="506" y="334.73" as="targetPoint" />
            <Array as="points">
              <mxPoint x="500" y="335" />
              <mxPoint x="500" y="293" />
            </Array>
          </mxGeometry>
        </mxCell>
        <mxCell id="N68zQNuSJBka23Q_pGD3-37" value="" style="endArrow=classic;html=1;rounded=0;entryX=0;entryY=0.5;entryDx=0;entryDy=0;exitX=1;exitY=0.5;exitDx=0;exitDy=0;" parent="1" source="N68zQNuSJBka23Q_pGD3-9" target="N68zQNuSJBka23Q_pGD3-10" edge="1">
          <mxGeometry width="50" height="50" relative="1" as="geometry">
            <mxPoint x="666" y="269.68" as="sourcePoint" />
            <mxPoint x="706" y="269.68" as="targetPoint" />
          </mxGeometry>
        </mxCell>
        <mxCell id="N68zQNuSJBka23Q_pGD3-38" value="" style="endArrow=classic;html=1;rounded=0;" parent="1" edge="1">
          <mxGeometry width="50" height="50" relative="1" as="geometry">
            <mxPoint x="810" y="269.13" as="sourcePoint" />
            <mxPoint x="920" y="270" as="targetPoint" />
          </mxGeometry>
        </mxCell>
        <mxCell id="N68zQNuSJBka23Q_pGD3-39" value="&lt;font face=&quot;Tahoma&quot; style=&quot;font-size: 14px;&quot;&gt;x&lt;/font&gt;" style="text;html=1;align=center;verticalAlign=middle;resizable=0;points=[];autosize=1;strokeColor=none;fillColor=none;" parent="1" vertex="1">
          <mxGeometry x="95" y="117" width="30" height="30" as="geometry" />
        </mxCell>
        <mxCell id="kIhnvqHd1zvJhgi5-zd1-1" value="&lt;font face=&quot;Tahoma&quot;&gt;&lt;span style=&quot;font-size: 14px;&quot;&gt;y&lt;/span&gt;&lt;/font&gt;" style="text;html=1;align=center;verticalAlign=middle;resizable=0;points=[];autosize=1;strokeColor=none;fillColor=none;" vertex="1" parent="1">
          <mxGeometry x="95" y="180" width="30" height="30" as="geometry" />
        </mxCell>
        <mxCell id="kIhnvqHd1zvJhgi5-zd1-2" value="&lt;font face=&quot;Tahoma&quot;&gt;&lt;span style=&quot;font-size: 14px;&quot;&gt;w&lt;/span&gt;&lt;/font&gt;" style="text;html=1;align=center;verticalAlign=middle;resizable=0;points=[];autosize=1;strokeColor=none;fillColor=none;" vertex="1" parent="1">
          <mxGeometry x="95" y="270" width="30" height="30" as="geometry" />
        </mxCell>
      </root>
    </mxGraphModel>
  </diagram>
</mxfile>
